<?xml version="1.0"?><svg xmlns="http://www.w3.org/2000/svg" data-name="Layer 1" id="Layer_1" viewBox="0 0 512 512"><title/><path d="M217.52,213a5.76,5.76,0,0,0,5.77-5.76v-20a5.77,5.77,0,0,0-11.53,0v20A5.76,5.76,0,0,0,217.52,213Z"/><path d="M288.32,213a5.77,5.77,0,0,0,5.77-5.76v-20a5.77,5.77,0,0,0-11.54,0v20A5.77,5.77,0,0,0,288.32,213Z"/><path d="M293.56,239.66a5.74,5.74,0,0,0-2.78-7.59,5.81,5.81,0,0,0-7.67,2.71c-.29.58-7.19,14.19-30.18,14.19S223,235.36,222.76,234.84a5.77,5.77,0,1,0-10.48,4.82c.39.85,10,20.84,40.65,20.84S293.17,240.51,293.56,239.66Z"/><path d="M319.79,320.53a127.7,127.7,0,0,0,60.92-108.68V162.71c0-70.46-57.33-127.79-127.78-127.79A127.93,127.93,0,0,0,125.14,162.71v49.14a127.76,127.76,0,0,0,64.38,110.78C169.64,338.4,117,387,117,459.87a5.77,5.77,0,0,0,11.53,0c0-23.64,6.3-44.62,15.16-62.65l24.41,12.61v50a5.77,5.77,0,0,0,11.53,0V406.32a5.73,5.73,0,0,0-3.13-5.12l-27.39-14.15c18.57-32.09,44-52.73,51.8-58.6a126.44,126.44,0,0,0,23.87,7.95l-.72,8.55c-1,12.48,3.54,21,15.22,27.64l-17.84,73.25a5.79,5.79,0,0,0,1.91,5.8l29,24.1a5.76,5.76,0,0,0,7.39,0l29-24.1a5.79,5.79,0,0,0,1.91-5.8l-17.84-73.25c11.68-6.68,16.26-15.16,15.22-27.65l-.85-10.09a126.94,126.94,0,0,0,21.55-8.18c1,.65,32.44,22.61,54.28,60.37L335.5,401.2a5.73,5.73,0,0,0-3.13,5.12v53.55a5.77,5.77,0,0,0,11.53,0v-50l24.44-12.62c8.84,18,15.13,39,15.13,62.66a5.77,5.77,0,0,0,11.53,0C395,383.5,337.11,333.72,319.79,320.53ZM252.93,46.46A116.37,116.37,0,0,1,369.17,162.71v8.45l-47.25-57.51a5.82,5.82,0,0,0-9.5.87c-.12.2-12.22,20.35-59.49,20.35s-59.38-20.15-59.46-20.28a5.76,5.76,0,0,0-4.52-3,5.39,5.39,0,0,0-5,2.07l-47.25,57.51v-8.45A116.38,116.38,0,0,1,252.93,46.46ZM136.67,211.85v-22.5l51.73-63c7.91,7.81,26.39,20,64.53,20s56.61-12.21,64.52-20l51.72,63v22.5a116.25,116.25,0,1,1-232.5,0ZM278.5,445.08,256,463.81,233.5,445.08l17-69.75h11Zm-2.06-99.17c.64,7.6-1.11,12.54-11.79,17.89h-17.3c-10.68-5.35-12.43-10.29-11.79-17.88l.63-7.52a118.41,118.41,0,0,0,39.54-.93Z"/></svg>