<?xml version="1.0"?><svg xmlns="http://www.w3.org/2000/svg" data-name="Layer 1" id="Layer_1" viewBox="0 0 64 64"><path d="M58.9941,39.7888A27.1191,27.1191,0,0,0,56.2571,28h1.9685a3,3,0,0,0,2.8457-3.9482l-.667-2A2.996,2.996,0,0,0,57.5586,20H51V18.209a.9989.9989,0,0,0-.4873-.8584l-1.8058-1.0791A2.9663,2.9663,0,0,0,49,15a3,3,0,1,0-3,3,2.97,2.97,0,0,0,1.2395-.2757L49,18.7764V26H46a1,1,0,0,0,0,2h4v4.3989a9.0254,9.0254,0,0,1-1.1406,4.3853L47.274,39.6257A11.0794,11.0794,0,0,0,44.5214,42H37a3.0033,3.0033,0,0,1-3-3V37a4.9758,4.9758,0,0,0-1.41-3.466A2.9935,2.9935,0,0,0,31,28H9a3.0033,3.0033,0,0,0-3,3,2.97,2.97,0,0,0,.6846,1.884A11.0154,11.0154,0,0,0,0,43v6a1,1,0,0,0,1,1H4.08a6.9907,6.9907,0,0,0,13.84,0H46.08a6.9907,6.9907,0,0,0,13.84,0H63a1,1,0,0,0,1-1A10.9932,10.9932,0,0,0,58.9941,39.7888ZM46,16a1,1,0,1,1,1-1A1.0009,1.0009,0,0,1,46,16Zm5,6h6.5586a.9981.9981,0,0,1,.9482.6836l.667,2.001A.999.999,0,0,1,58.2256,26H51Zm-.3945,15.7588A11.03,11.03,0,0,0,52,32.3989V28h2.0228a24.8205,24.8205,0,0,1,2.94,10.75,10.75,10.75,0,0,0-6.6906-.394ZM9,30H31a1,1,0,0,1,0,2H9a1,1,0,0,1,0-2Zm2,24a5.0083,5.0083,0,0,1-4.8989-4h9.7978A5.0083,5.0083,0,0,1,11,54ZM2.059,48a8.9963,8.9963,0,0,1,17.882,0Zm39.9917,0H21.9493A10.981,10.981,0,0,0,2.016,42.6841,9.0039,9.0039,0,0,1,11,34H29a3.0033,3.0033,0,0,1,3,3v2a5.0059,5.0059,0,0,0,5,5h6.2143A10.9021,10.9021,0,0,0,42.0507,48ZM53,54a5.0083,5.0083,0,0,1-4.8989-4h9.7978A5.0083,5.0083,0,0,1,53,54Zm-8.9443-6a9,9,0,0,1,17.8886,0ZM9,26H31a1,1,0,0,0,1-1V21a1,1,0,0,0-1-1H9a1,1,0,0,0-1,1v4A1,1,0,0,0,9,26Zm1-4H30v2H10Zm2-4H28a1,1,0,0,0,0-2h-.07A8.0069,8.0069,0,0,0,21,9.07V9a1,1,0,0,0-2,0V9.07A8.0069,8.0069,0,0,0,12.07,16H12a1,1,0,0,0,0,2Zm8-7a6.0046,6.0046,0,0,1,5.91,5H14.09A6.0046,6.0046,0,0,1,20,11Z"/></svg>