<?xml version="1.0"?><!DOCTYPE svg PUBLIC "-//W3C//DTD SVG 1.1//EN" "http://www.w3.org/Graphics/SVG/1.1/DTD/svg11.dtd"><svg xmlns="http://www.w3.org/2000/svg" xmlns:xlink="http://www.w3.org/1999/xlink" enable-background="new 0 0 64 64" height="64px" id="Icons" version="1.1" viewBox="0 0 64 64" width="64px" xml:space="preserve"><g id="cloud"><g><path d="M52,46.5c-0.662,0-1.31-0.189-1.873-0.549l-1.514-0.966l-1.671,0.667C45.601,46.191,43.799,46.5,42,46.5    c-1.949,0-3.861-0.357-5.246-0.98l-1.241-0.556l-1.292,0.428c-4.384,1.453-10.075,1.452-14.475-0.011l-1.529-0.511l-1.385,0.835    C15.97,46.225,14.99,46.5,14,46.5v-1c0.809,0,1.609-0.226,2.316-0.651l1.779-1.072l1.967,0.655    c4.197,1.396,9.662,1.397,13.844,0.011l1.661-0.549l1.596,0.714C38.425,45.175,40.188,45.5,42,45.5    c1.676,0,3.342-0.282,4.57-0.775l2.148-0.858l1.947,1.242C51.067,45.364,51.529,45.5,52,45.5c1.379,0,2.5-1.121,2.5-2.5    c0-1.352-1.061-2.446-2.415-2.491l-1.415-0.047l0.033-1l1.415,0.047C54.015,39.573,55.5,41.106,55.5,43    C55.5,44.93,53.93,46.5,52,46.5z" fill="#37474F"/></g><g><path d="M25,15c4.931,0,9.303,2.964,11.137,7.55l0.405,1.013l0.974-0.49C38.928,22.36,40.437,22,42,22    c5.514,0,10,4.486,10,10c0,1.242-0.234,2.469-0.696,3.646l-0.518,1.317l1.415,0.047C55.453,37.119,58,39.75,58,43    c0,3.309-2.691,6-6,6c-1.139,0-2.251-0.325-3.216-0.941l-0.434-0.276l-0.477,0.19C46.222,48.636,44.136,49,42,49    c-2.324,0-4.55-0.426-6.268-1.198l-0.355-0.159l-0.369,0.122C32.568,48.573,29.8,49,27,49c-2.811,0-5.592-0.432-8.044-1.248    l-0.437-0.146l-0.396,0.238C16.871,48.601,15.444,49,14,49c-4.411,0-8-3.589-8-8c0-4.092,3.064-7.509,7.127-7.95l1.337-0.146    l-0.523-1.237C13.316,30.188,13,28.619,13,27C13,20.383,18.383,15,25,15 M25,14c-7.18,0-13,5.82-13,13    c0,1.793,0.363,3.502,1.02,5.056C8.512,32.545,5,36.361,5,41c0,4.971,4.029,9,9,9c1.699,0,3.283-0.48,4.641-1.299    C21.11,49.523,23.959,50,27,50c3.025,0,5.861-0.471,8.322-1.286C37.094,49.511,39.43,50,42,50c2.364,0,4.533-0.412,6.246-1.099    C49.331,49.594,50.617,50,52,50c3.865,0,7-3.135,7-7c0-3.787-3.01-6.863-6.766-6.988C52.723,34.768,53,33.418,53,32    c0-6.076-4.924-11-11-11c-1.776,0-3.449,0.431-4.935,1.179C35.149,17.389,30.475,14,25,14L25,14z" fill="#37474F"/></g></g></svg>